<svg xmlns="http://www.w3.org/2000/svg" viewBox="0 0 320 305" width="320" height="305">
  <!-- Reds dominant + blue accents, with text -->

  <!-- Row 0 -->
  <rect x="67"  y="20"  width="26" height="26" rx="3" fill="#BDC3C7"/>
  <rect x="99"  y="20"  width="26" height="26" rx="3" fill="#BDC3C7"/>
  <rect x="131" y="20"  width="26" height="26" rx="3" fill="#922B21"/>
  <rect x="163" y="20"  width="26" height="26" rx="3" fill="#BDC3C7"/>
  <rect x="195" y="20"  width="26" height="26" rx="3" fill="#BDC3C7"/>
  <rect x="227" y="20"  width="26" height="26" rx="3" fill="#BDC3C7"/>
  <!-- Row 1 -->
  <rect x="67"  y="52"  width="26" height="26" rx="3" fill="#BDC3C7"/>
  <rect x="99"  y="52"  width="26" height="26" rx="3" fill="#C0392B"/>
  <rect x="131" y="52"  width="26" height="26" rx="3" fill="#BDC3C7"/>
  <rect x="163" y="52"  width="26" height="26" rx="3" fill="#BDC3C7"/>
  <rect x="195" y="52"  width="26" height="26" rx="3" fill="#BDC3C7"/>
  <rect x="227" y="52"  width="26" height="26" rx="3" fill="#2E86C1"/>
  <!-- Row 2 -->
  <rect x="67"  y="84"  width="26" height="26" rx="3" fill="#BDC3C7"/>
  <rect x="99"  y="84"  width="26" height="26" rx="3" fill="#BDC3C7"/>
  <rect x="131" y="84"  width="26" height="26" rx="3" fill="#BDC3C7"/>
  <rect x="163" y="84"  width="26" height="26" rx="3" fill="#922B21"/>
  <rect x="195" y="84"  width="26" height="26" rx="3" fill="#BDC3C7"/>
  <rect x="227" y="84"  width="26" height="26" rx="3" fill="#BDC3C7"/>
  <!-- Row 3 -->
  <rect x="67"  y="116" width="26" height="26" rx="3" fill="#D87165"/>
  <rect x="99"  y="116" width="26" height="26" rx="3" fill="#BDC3C7"/>
  <rect x="131" y="116" width="26" height="26" rx="3" fill="#BDC3C7"/>
  <rect x="163" y="116" width="26" height="26" rx="3" fill="#BDC3C7"/>
  <rect x="195" y="116" width="26" height="26" rx="3" fill="#C0392B"/>
  <rect x="227" y="116" width="26" height="26" rx="3" fill="#BDC3C7"/>
  <!-- Row 4 -->
  <rect x="67"  y="148" width="26" height="26" rx="3" fill="#BDC3C7"/>
  <rect x="99"  y="148" width="26" height="26" rx="3" fill="#BDC3C7"/>
  <rect x="131" y="148" width="26" height="26" rx="3" fill="#1B4F72"/>
  <rect x="163" y="148" width="26" height="26" rx="3" fill="#BDC3C7"/>
  <rect x="195" y="148" width="26" height="26" rx="3" fill="#BDC3C7"/>
  <rect x="227" y="148" width="26" height="26" rx="3" fill="#BDC3C7"/>
  <!-- Row 5 -->
  <rect x="67"  y="180" width="26" height="26" rx="3" fill="#BDC3C7"/>
  <rect x="99"  y="180" width="26" height="26" rx="3" fill="#922B21"/>
  <rect x="131" y="180" width="26" height="26" rx="3" fill="#BDC3C7"/>
  <rect x="163" y="180" width="26" height="26" rx="3" fill="#BDC3C7"/>
  <rect x="195" y="180" width="26" height="26" rx="3" fill="#BDC3C7"/>
  <rect x="227" y="180" width="26" height="26" rx="3" fill="#BDC3C7"/>

  <!-- Wordmark -->
  <text x="160" y="246"
        text-anchor="middle"
        font-family="-apple-system, Segoe UI, Helvetica, Arial, sans-serif"
        font-size="36" font-weight="700" fill="#2C3E50" letter-spacing="-0.5">OncoSieve</text>
  <text x="160" y="271"
        text-anchor="middle"
        font-family="-apple-system, Segoe UI, Helvetica, Arial, sans-serif"
        font-size="11" font-weight="500" fill="#7F8C8D" letter-spacing="3">GENOMIC WHITELIST</text>
</svg>
