<svg xmlns="http://www.w3.org/2000/svg" viewBox="0 0 200 200" width="200" height="200">
  <!-- Mark only, reds + blue accents -->

  <!-- Row 0 -->
  <rect x="10"  y="10"  width="26" height="26" rx="3" fill="#BDC3C7"/>
  <rect x="42"  y="10"  width="26" height="26" rx="3" fill="#BDC3C7"/>
  <rect x="74"  y="10"  width="26" height="26" rx="3" fill="#922B21"/>
  <rect x="106" y="10"  width="26" height="26" rx="3" fill="#BDC3C7"/>
  <rect x="138" y="10"  width="26" height="26" rx="3" fill="#BDC3C7"/>
  <rect x="170" y="10"  width="26" height="26" rx="3" fill="#BDC3C7"/>
  <!-- Row 1 -->
  <rect x="10"  y="42"  width="26" height="26" rx="3" fill="#BDC3C7"/>
  <rect x="42"  y="42"  width="26" height="26" rx="3" fill="#C0392B"/>
  <rect x="74"  y="42"  width="26" height="26" rx="3" fill="#BDC3C7"/>
  <rect x="106" y="42"  width="26" height="26" rx="3" fill="#BDC3C7"/>
  <rect x="138" y="42"  width="26" height="26" rx="3" fill="#BDC3C7"/>
  <rect x="170" y="42"  width="26" height="26" rx="3" fill="#2E86C1"/>
  <!-- Row 2 -->
  <rect x="10"  y="74"  width="26" height="26" rx="3" fill="#BDC3C7"/>
  <rect x="42"  y="74"  width="26" height="26" rx="3" fill="#BDC3C7"/>
  <rect x="74"  y="74"  width="26" height="26" rx="3" fill="#BDC3C7"/>
  <rect x="106" y="74"  width="26" height="26" rx="3" fill="#922B21"/>
  <rect x="138" y="74"  width="26" height="26" rx="3" fill="#BDC3C7"/>
  <rect x="170" y="74"  width="26" height="26" rx="3" fill="#BDC3C7"/>
  <!-- Row 3 -->
  <rect x="10"  y="106" width="26" height="26" rx="3" fill="#D87165"/>
  <rect x="42"  y="106" width="26" height="26" rx="3" fill="#BDC3C7"/>
  <rect x="74"  y="106" width="26" height="26" rx="3" fill="#BDC3C7"/>
  <rect x="106" y="106" width="26" height="26" rx="3" fill="#BDC3C7"/>
  <rect x="138" y="106" width="26" height="26" rx="3" fill="#C0392B"/>
  <rect x="170" y="106" width="26" height="26" rx="3" fill="#BDC3C7"/>
  <!-- Row 4 -->
  <rect x="10"  y="138" width="26" height="26" rx="3" fill="#BDC3C7"/>
  <rect x="42"  y="138" width="26" height="26" rx="3" fill="#BDC3C7"/>
  <rect x="74"  y="138" width="26" height="26" rx="3" fill="#1B4F72"/>
  <rect x="106" y="138" width="26" height="26" rx="3" fill="#BDC3C7"/>
  <rect x="138" y="138" width="26" height="26" rx="3" fill="#BDC3C7"/>
  <rect x="170" y="138" width="26" height="26" rx="3" fill="#BDC3C7"/>
  <!-- Row 5 -->
  <rect x="10"  y="170" width="26" height="26" rx="3" fill="#BDC3C7"/>
  <rect x="42"  y="170" width="26" height="26" rx="3" fill="#922B21"/>
  <rect x="74"  y="170" width="26" height="26" rx="3" fill="#BDC3C7"/>
  <rect x="106" y="170" width="26" height="26" rx="3" fill="#BDC3C7"/>
  <rect x="138" y="170" width="26" height="26" rx="3" fill="#BDC3C7"/>
  <rect x="170" y="170" width="26" height="26" rx="3" fill="#BDC3C7"/>
</svg>
